<svg width="193" height="53" viewBox="0 0 193 53" fill="none" xmlns="http://www.w3.org/2000/svg">
<g id="Hilo-Blue-Orange 1" clip-path="url(#clip0_1264_35018)">
<g id="Layer 1">
<g id="Group">
<g id="Group_2">
<path id="Vector" d="M192.778 26.3037C192.521 21.9751 191.127 18.018 188.678 14.4491C188.62 14.3614 188.537 14.2904 188.383 14.1277C188.653 15.4509 188.4 16.5487 187.769 17.5755C187.682 17.7133 187.657 17.9637 187.727 18.1056C189.865 22.3341 190.467 26.8088 189.765 31.4714C189.176 35.37 187.615 38.8262 184.988 41.7774C184.843 41.9402 184.677 42.0863 184.536 42.224C184.295 41.5979 184.092 41.0052 183.838 40.4417C183.191 38.9974 182.166 37.8537 180.983 36.8352C180.842 36.7141 180.672 36.5221 180.667 36.3593C180.622 34.531 180.979 32.8154 182.128 31.3294C182.473 30.8828 182.876 30.5989 183.481 30.695C183.768 30.7409 184.071 30.7117 184.366 30.7033C184.818 30.6824 185.279 30.7033 185.706 30.6031C186.486 30.4069 186.69 29.8685 186.441 29.0962C186.345 28.7999 186.349 28.4033 186.466 28.1153C186.603 27.7689 186.76 27.4808 186.603 27.1052C186.574 27.03 186.752 26.8881 186.794 26.7629C186.843 26.6126 186.922 26.3747 186.86 26.3079C186.582 26.0449 186.54 25.7235 186.719 25.4647C186.835 25.2977 187.146 25.2226 187.387 25.1892C187.877 25.1224 188.014 24.9889 187.864 24.5172C187.437 23.1814 186.997 21.8415 186.54 20.5141C186.482 20.3472 186.304 20.1259 186.159 20.1009C185.411 19.984 184.648 19.8463 183.901 19.8797C183.241 19.9131 182.589 20.1719 181.938 20.3305C182.145 18.6525 183.328 17.6131 185.009 17.6214C185.212 17.6214 185.486 17.6298 185.611 17.5087C186.2 16.9494 186.628 16.2815 186.698 15.4425C186.86 13.4055 185.291 11.7233 183.125 11.6398C182.743 11.6231 182.357 11.6649 181.838 11.6899C182.075 11.8778 182.195 11.9529 182.294 12.0489C182.527 12.2785 182.68 12.579 182.444 12.8337C182.311 12.9714 181.962 13.009 181.751 12.9464C181.402 12.8462 181.078 12.6333 180.751 12.4538C179.505 11.7734 178.186 11.5564 176.783 11.7066C175.392 11.8611 174.197 12.458 173.06 13.226C171.964 13.969 170.839 14.3865 169.586 13.322C169.519 14.9792 170.296 15.8641 171.815 16.2314C171.121 16.7031 170.424 16.9327 169.71 16.7783C169.038 16.6405 168.411 16.3066 167.743 16.0519C167.826 16.3274 167.884 16.6864 168.038 16.9953C168.693 18.3269 169.847 18.8445 171.25 18.857C173.832 18.882 176.417 18.8695 179.003 18.8737C179.165 18.8737 179.327 18.8904 179.505 18.8946C179.099 19.8964 178.982 19.9757 178.015 19.9798C176.036 19.9798 174.064 19.9798 172.084 19.9798C171.08 19.9798 170.1 19.8755 169.175 19.4414C169.071 19.3913 168.947 19.3788 168.83 19.3495C168.793 19.3913 168.756 19.433 168.718 19.4748C169.063 19.8713 169.362 20.3347 169.768 20.6644C170.507 21.2655 171.412 21.4742 172.346 21.4826C173.873 21.4992 175.396 21.4826 176.924 21.4826H178.111C177.808 23.8117 178.891 25.0139 181.153 25.3437C180.29 25.8028 179.526 25.8738 178.746 25.5273C177.472 24.9596 177.069 23.8201 176.878 22.5344C175.384 22.5344 173.919 22.5344 172.458 22.5344C171.466 22.5344 170.507 22.3967 169.615 21.9167C169.561 21.8874 169.482 21.9 169.353 21.8874C170.188 23.6364 171.736 23.9787 173.404 24.1874C172.84 24.4086 172.292 24.5881 171.736 24.6132C171.18 24.6341 170.623 24.5047 170.013 24.4337C170.54 25.4939 171.346 26.1368 172.466 26.3747C172.831 26.454 173.205 26.4999 173.574 26.5583C173.956 26.621 174.209 26.8338 174.209 27.2387C174.209 27.7062 174.226 28.1863 174.139 28.6413C173.429 32.2352 169.768 35.704 165.22 34.9985C164.585 34.9025 163.979 34.6312 163.36 34.4392C163.377 34.3933 163.389 34.3515 163.406 34.3098C168.245 34.1512 172.014 31.5841 172.068 28.491C171.288 28.2238 170.478 28.0611 169.777 27.6896C168.274 26.8923 167.399 25.5273 166.805 23.9704C166.249 22.5177 166.187 20.99 166.129 19.4497C166.095 18.5481 165.946 17.6006 165.614 16.7616C164.941 15.046 163.485 14.2529 161.779 13.7812C159.396 13.13 156.981 12.554 154.669 11.7025C149.232 9.69468 144.882 6.30525 142.135 1.04996C142.068 0.924737 141.965 0.816208 141.828 0.636719C141.699 0.862124 141.591 0.995698 141.537 1.15014C140.728 3.37915 140.69 5.64573 141.438 7.87056C142.504 11.0429 144.725 13.2761 147.551 14.9333C150.51 16.6614 153.781 17.2917 157.13 17.6507C158.255 17.7759 159.396 17.8635 160.438 18.377C161.003 18.6566 161.405 19.0866 161.663 19.7169C161.243 19.6042 160.907 19.4581 160.554 19.4247C159.052 19.2828 157.554 19.1492 156.047 19.0615C151.843 18.8236 147.979 17.6173 144.579 15.0627C142.857 13.7645 141.433 12.1825 140.313 10.325C140.221 10.1747 140.089 10.0495 139.972 9.90756C139.927 9.92426 139.885 9.9493 139.844 9.966C139.682 10.9219 139.694 11.8903 139.856 12.8378C140.367 15.8892 142.014 18.235 144.496 19.984C147.09 21.8081 150.033 22.5678 153.167 22.6096C155.092 22.6305 157.022 22.5428 158.952 22.5344C159.546 22.5344 160.152 22.5929 160.675 22.9143C154.038 24.9429 147.688 24.8094 141.844 20.414C141.948 20.9858 142.064 21.5493 142.301 22.0461C143.957 25.5399 146.833 27.197 150.564 27.5059C153.366 27.7355 156.076 27.172 158.761 26.4498C159.5 26.2536 160.243 26.07 160.982 25.8821C159.982 26.7337 158.894 27.3848 157.711 27.869C155.607 28.7289 153.403 28.9126 151.162 28.8625C150.909 28.8541 150.656 28.8625 150.402 28.8625C150.39 28.9084 150.382 28.9543 150.365 28.9961C150.539 29.1463 150.701 29.3091 150.888 29.4385C152.108 30.2734 153.49 30.624 154.943 30.6741C157.176 30.7576 159.235 30.0688 161.235 29.1589C161.364 29.1046 161.492 29.0462 161.621 28.9919C160.364 30.2775 158.886 31.1666 157.205 31.726C155.632 32.2519 154.013 32.3771 152.378 32.4064C152.1 32.4064 151.822 32.4606 151.544 32.4899C151.536 32.5483 151.527 32.6109 151.523 32.6693C151.814 32.7946 152.096 32.9365 152.391 33.045C152.694 33.1577 153.005 33.2412 153.391 33.3581C153.2 33.4457 153.104 33.4875 153.005 33.5292C149.871 34.8023 146.592 35.4076 143.247 35.6581C141.699 35.7749 140.138 35.729 138.578 35.7582C138.412 35.7582 138.242 35.7875 138.076 35.8041C138.067 35.8542 138.059 35.9002 138.051 35.9502C138.345 36.1089 138.628 36.2925 138.939 36.4219C140.736 37.19 142.637 37.5114 144.571 37.6199C149.162 37.8704 153.578 37.0439 157.861 35.3867C158.185 35.2615 158.508 35.1238 158.832 34.9902C158.753 35.1822 158.633 35.2949 158.5 35.3993C156.541 36.9813 154.341 38.1417 151.967 38.9348C148.871 39.9741 145.683 40.5544 142.421 40.7589C141.981 40.7839 141.541 40.834 141.101 40.8716C141.085 40.93 141.072 40.9885 141.06 41.0469C141.375 41.1888 141.687 41.36 142.014 41.4727C145.036 42.5162 148.132 42.4787 151.241 42.0905C154.291 41.7106 157.18 40.738 160.002 39.5651C160.895 39.1936 161.766 38.7553 162.742 38.3045C162.543 38.4923 162.422 38.6134 162.298 38.7261C159.55 41.2681 156.333 42.9879 152.785 44.1149C149.548 45.1418 146.206 45.5675 142.836 45.818C142.38 45.8514 141.927 45.889 141.471 45.9223C141.458 45.9766 141.45 46.0351 141.433 46.0893C141.67 46.2104 141.89 46.3523 142.135 46.4399C143.915 47.1162 145.771 47.4084 147.659 47.4877C150.992 47.6296 154.262 47.1913 157.483 46.2813C162.621 44.8287 167.067 42.1823 170.939 38.509C171.561 37.9205 172.226 37.3695 172.612 37.0272C171.458 39.5484 169.573 41.9485 167.137 43.9271C164.717 45.8848 161.991 47.2581 159.11 48.3768C162.057 48.4936 164.771 47.6463 167.328 46.3105C172.188 43.7685 175.463 39.8447 177.177 34.5811C177.14 35.4452 177.102 36.3092 176.924 37.1399C176.152 40.7088 174.176 43.5347 171.454 45.8723C168.498 48.4102 165.016 49.8544 161.26 50.6893C160.812 50.7894 160.364 50.8771 159.911 50.9689C159.911 50.994 159.911 51.0232 159.903 51.0566C160.056 51.1109 160.21 51.1776 160.364 51.2235C164.56 52.4883 168.81 52.6845 173.093 51.7954C178.891 50.6016 183.789 47.7882 187.507 43.1549C191.442 38.2586 193.14 32.565 192.766 26.2787L192.778 26.3037ZM173.483 17.3543C174.238 16.6614 175.098 16.3817 176.011 16.3358C177.082 16.2857 178.152 16.2982 179.223 16.3358C179.925 16.365 180.526 16.6656 181 17.3501H173.483V17.3543ZM183.772 21.9876C184.266 22.3341 184.689 22.0419 185.208 21.9208C185.445 22.6263 185.665 23.29 185.893 23.9871C185.324 24.2166 185.237 24.7384 185.071 25.2184C184.897 25.7235 184.664 26.2119 184.366 26.7086C184.158 24.801 183.631 23.2148 181.427 22.9769C181.659 21.9584 182.929 21.4032 183.772 21.9876Z" fill="black"/>
<path id="Vector_2" d="M184.168 9.74807C182.782 9.53101 181.433 9.58945 180.105 10.0319C179.968 10.0778 179.773 10.0528 179.644 9.98182C175.946 8.01579 172.032 6.90128 167.823 7.05155C164.449 7.1726 161.245 8.00744 158.277 9.65624C157.684 9.986 157.198 9.99435 156.596 9.71468C155.887 9.38074 155.127 9.15534 154.293 8.84645C158.551 5.77008 163.25 4.31747 168.363 4.2632C174.265 4.20059 179.515 6.12071 184.164 9.74807H184.168Z" fill="black"/>
<path id="Vector_3" d="M136.711 29.3169C136.997 29.3002 137.147 29.2876 137.296 29.2876C140.297 29.2876 143.298 29.2876 146.298 29.2793C146.971 29.2793 147.506 29.5297 147.913 30.0599C148.295 30.5566 148.257 31.0951 147.705 31.3706C147.091 31.6794 146.415 31.9257 145.742 32.0384C143.567 32.4016 141.413 32.2471 139.396 31.3079C138.554 30.9156 137.823 30.2686 137.051 29.7259C136.943 29.6508 136.877 29.5214 136.711 29.3169Z" fill="black"/>
<path id="Vector_4" d="M136.719 24.4967C137.918 24.4967 139.064 24.4758 140.209 24.5092C140.604 24.5217 140.923 24.7805 140.981 25.2063C141.035 25.6028 140.778 25.8616 140.446 26.0036C139.417 26.4544 137.445 26.2123 136.719 24.4967Z" fill="black"/>
</g>
<g id="Group_3">
<path id="Vector_5" d="M0 13.168H6.77767V21.4621H22.2007V13.168H28.9784V35.5624H22.2007V27.0012H6.77767V35.5624H0V13.168Z" fill="black"/>
<path id="Vector_6" d="M41.4219 13.168H48.1995V35.5624H41.4219V13.168Z" fill="black"/>
<path id="Vector_7" d="M60.6836 13.168H67.4613V30.0233H82.7847V35.5624H60.6877V13.168H60.6836Z" fill="black"/>
<path id="Vector_8" d="M117.926 13.2675C121.362 13.9062 123.035 15.6844 123.5 19.2783C123.633 20.1841 123.699 21.9957 123.699 24.7173C123.699 30.1229 123.13 32.3059 121.23 33.8838C119.893 35.0233 118.025 35.5618 114.788 35.6954C113.584 35.7622 110.617 35.7956 108.446 35.7956C103.138 35.7956 100.436 35.6954 99.0994 35.4282C96.6299 34.9899 95.1939 34.0508 94.3596 32.4061C93.4922 30.7615 93.293 29.1169 93.293 24.2164C93.293 20.4555 93.3594 19.5163 93.762 18.0052C94.397 15.6218 95.7002 14.3445 98.2029 13.6056C100.071 13.0672 102.109 12.9336 107.986 12.9336C114.394 12.9336 116.365 13.0004 117.934 13.2675H117.926ZM101.303 19.2074C100.403 19.9128 100.137 21.019 100.137 24.2414C100.137 27.4639 100.403 28.7412 101.237 29.4466C102.138 30.1855 103.242 30.319 108.347 30.319C114.19 30.319 115.39 30.1187 116.158 29.0417C116.793 28.2361 116.959 27.0924 116.959 24.1079C116.959 18.4686 116.859 18.4018 108.513 18.4018C103.54 18.4018 102.171 18.5687 101.303 19.2074Z" fill="black"/>
</g>
<g id="Group_4">
<path id="Vector_9" d="M1.75222 40.9336H2.81888L4.45 45.4H3.57011L3.25468 44.4858H1.31227L0.996837 45.4H0.121094L1.75222 40.9336ZM3.0347 43.8639L2.31253 41.7976H2.26272L1.54054 43.8639H3.03885H3.0347Z" fill="black"/>
<path id="Vector_10" d="M6.17578 40.9336H7.78615C9.17655 40.9336 9.88628 41.7392 9.88628 43.1668C9.88628 44.5943 9.17655 45.4 7.78615 45.4H6.17578V40.9336ZM7.70314 44.6653C8.67435 44.6653 9.03543 44.2061 9.03543 43.1668C9.03543 42.1274 8.67435 41.6682 7.70314 41.6682H7.00587V44.6695H7.70314V44.6653Z" fill="black"/>
<path id="Vector_11" d="M11.3069 40.9336H12.1826L13.4444 44.5401H13.4942L14.7518 40.9336H15.6316L14.0005 45.4H12.9339L11.3027 40.9336H11.3069Z" fill="black"/>
<path id="Vector_12" d="M18.0213 40.9336H19.0879L20.719 45.4H19.8392L19.5237 44.4858H17.5896L17.2742 45.4H16.3984L18.0296 40.9336H18.0213ZM19.2996 43.8639L18.5774 41.7976H18.5276L17.8054 43.8639H19.3037H19.2996Z" fill="black"/>
<path id="Vector_13" d="M22.4453 40.9336H23.3211L25.2635 44.0684H25.2842V40.9336H26.1226V45.4H25.2095L23.3003 42.3194H23.2796V45.4H22.4495V40.9336H22.4453Z" fill="black"/>
<path id="Vector_14" d="M27.9749 43.1666C27.9749 41.7098 28.7883 40.875 30.0418 40.875C30.9922 40.875 31.7559 41.3592 31.8555 42.4194H31.042C30.9092 41.8518 30.5149 41.6013 30.021 41.6013C29.2158 41.6013 28.8215 42.24 28.8215 43.1666C28.8215 44.0933 29.2034 44.7361 30.021 44.7361C30.5149 44.7361 30.9092 44.4857 31.042 43.9138H31.8555C31.7559 44.9782 30.9922 45.4666 30.0335 45.4666C28.7842 45.4666 27.9707 44.6318 27.9707 43.1708L27.9749 43.1666Z" fill="black"/>
<path id="Vector_15" d="M33.6602 40.9336H36.636V41.6682H34.4902V42.8036H36.4451V43.4631H34.4902V44.6695H36.6983V45.4041H33.6602V40.9378V40.9336Z" fill="black"/>
<path id="Vector_16" d="M38.4922 40.9336H40.1026C41.493 40.9336 42.2027 41.7392 42.2027 43.1668C42.2027 44.5943 41.493 45.4 40.1026 45.4H38.4922V40.9336ZM40.0237 44.6653C40.9949 44.6653 41.356 44.2061 41.356 43.1668C41.356 42.1274 40.9949 41.6682 40.0237 41.6682H39.3264V44.6695H40.0237V44.6653Z" fill="black"/>
<path id="Vector_17" d="M48.2049 40.9336H49.2715L50.9026 45.4H50.0227L49.7073 44.4858H47.7732L47.4578 45.4H46.582L48.2132 40.9336H48.2049ZM49.4873 43.8639L48.7652 41.7976H48.7154L47.9932 43.8639H49.4915H49.4873Z" fill="black"/>
<path id="Vector_18" d="M51.6565 40.9336H52.5322L53.794 44.5401H53.8438L55.1014 40.9336H55.9813L54.3501 45.4H53.2835L51.6523 40.9336H51.6565Z" fill="black"/>
<path id="Vector_19" d="M57.7461 40.9336H58.5762V45.4H57.7461V40.9336Z" fill="black"/>
<path id="Vector_20" d="M61.9334 40.9336H63L64.6312 45.4H63.7513L63.4358 44.4858H61.5017L61.1863 45.4H60.3105L61.9417 40.9336H61.9334ZM63.2159 43.8639L62.4937 41.7976H62.4439L61.7217 43.8639H63.22H63.2159Z" fill="black"/>
<path id="Vector_21" d="M66.855 41.6808H65.5352V40.9336H69.0049V41.6808H67.6851V45.4H66.855V41.6808Z" fill="black"/>
<path id="Vector_22" d="M70.7695 40.9336H71.5996V45.4H70.7695V40.9336Z" fill="black"/>
<path id="Vector_23" d="M73.4551 43.1666C73.4551 41.7641 74.2976 40.875 75.5427 40.875C76.7879 40.875 77.6387 41.7599 77.6387 43.1666C77.6387 44.5733 76.7879 45.4624 75.5427 45.4624C74.2976 45.4624 73.4551 44.5608 73.4551 43.1666ZM75.5427 44.7361C76.3023 44.7361 76.7754 44.1434 76.7754 43.1666C76.7754 42.1899 76.3064 41.6013 75.5427 41.6013C74.7791 41.6013 74.3101 42.1815 74.3101 43.1666C74.3101 44.1517 74.7791 44.7361 75.5427 44.7361Z" fill="black"/>
<path id="Vector_24" d="M79.4941 40.9336H80.3699L82.3123 44.0684H82.333V40.9336H83.1714V45.4H82.2583L80.3491 42.3194H80.3284V45.4H79.4983V40.9336H79.4941Z" fill="black"/>
<path id="Vector_25" d="M87.7541 43.9845H88.6091C88.634 44.4186 88.8997 44.7651 89.5679 44.7651C90.1324 44.7651 90.4436 44.523 90.4436 44.1222C90.4436 43.7591 90.1946 43.6005 89.7505 43.5086L89.1404 43.3876C88.4182 43.2457 87.8704 42.9076 87.8704 42.1562C87.8704 41.3339 88.5261 40.8789 89.5388 40.8789C90.5515 40.8789 91.2032 41.3464 91.2032 42.2063H90.3482C90.3482 41.7972 90.0327 41.5802 89.5222 41.5802C88.9578 41.5802 88.7461 41.8473 88.7461 42.1562C88.7461 42.4067 88.8997 42.6237 89.3438 42.7197L89.9165 42.8366C90.9085 43.0328 91.3235 43.4252 91.3235 44.1181C91.3235 45.0364 90.5765 45.4705 89.5596 45.4705C88.4224 45.4705 87.75 44.9195 87.75 43.9887L87.7541 43.9845Z" fill="black"/>
<path id="Vector_26" d="M94.3526 43.7303L92.7422 40.9336H93.6885L94.7801 42.9163L95.8799 40.9336H96.8262L95.2159 43.7303V45.4041H94.3609V43.7303H94.3526Z" fill="black"/>
<path id="Vector_27" d="M98.2327 43.9845H99.0877C99.1126 44.4186 99.3782 44.7651 100.046 44.7651C100.611 44.7651 100.922 44.523 100.922 44.1222C100.922 43.7591 100.673 43.6005 100.229 43.5086L99.6189 43.3876C98.8967 43.2457 98.3489 42.9076 98.3489 42.1562C98.3489 41.3339 99.0046 40.8789 100.017 40.8789C101.03 40.8789 101.682 41.3464 101.682 42.2063H100.827C100.827 41.7972 100.511 41.5802 100.001 41.5802C99.4363 41.5802 99.2246 41.8473 99.2246 42.1562C99.2246 42.4067 99.3782 42.6237 99.8223 42.7197L100.395 42.8366C101.387 43.0328 101.802 43.4252 101.802 44.1181C101.802 45.0364 101.055 45.4705 100.038 45.4705C98.9009 45.4705 98.2285 44.9195 98.2285 43.9887L98.2327 43.9845Z" fill="black"/>
<path id="Vector_28" d="M104.605 41.6808H103.285V40.9336H106.755V41.6808H105.435V45.4H104.605V41.6808Z" fill="black"/>
<path id="Vector_29" d="M108.521 40.9336H111.497V41.6682H109.352V42.8036H111.306V43.4631H109.352V44.6695H111.56V45.4041H108.521V40.9378V40.9336Z" fill="black"/>
<path id="Vector_30" d="M113.354 40.9336H114.395L115.69 44.2729L116.985 40.9336H118.027V45.4H117.197V42.3987H117.164L116.01 45.4H115.375L114.213 42.3987H114.188V45.4H113.358V40.9336H113.354Z" fill="black"/>
<path id="Vector_31" d="M119.877 43.9845H120.732C120.757 44.4186 121.023 44.7651 121.691 44.7651C122.255 44.7651 122.567 44.523 122.567 44.1222C122.567 43.7591 122.318 43.6005 121.874 43.5086L121.263 43.3876C120.541 43.2457 119.993 42.9076 119.993 42.1562C119.993 41.3339 120.649 40.8789 121.662 40.8789C122.675 40.8789 123.326 41.3464 123.326 42.2063H122.471C122.471 41.7972 122.156 41.5802 121.645 41.5802C121.081 41.5802 120.869 41.8473 120.869 42.1562C120.869 42.4067 121.023 42.6237 121.467 42.7197L122.04 42.8366C123.032 43.0328 123.447 43.4252 123.447 44.1181C123.447 45.0364 122.699 45.4705 121.683 45.4705C120.545 45.4705 119.873 44.9195 119.873 43.9887L119.877 43.9845Z" fill="black"/>
</g>
</g>
</g>
</g>
<defs>
<clipPath id="clip0_1264_35018">
<rect width="192.829" height="51.7347" fill="white" transform="translate(0 0.632812)"/>
</clipPath>
</defs>
</svg>
